Coordinates
version=1
nRows=6
nColumns=36
inDegrees=yes

Units are S.I. units (second, meters, Newtons, ...)
If the header above contains a line with 'inDegrees', this indicates whether rotational values are in degrees (yes) or radians (no).

endheader
time	pelvis_tilt	pelvis_list	pelvis_rotation	pelvis_tx	pelvis_ty	pelvis_tz	hip_flexion_r	hip_adduction_r	hip_rotation_r	knee_angle_r	knee_angle_r_beta	ankle_angle_r	subtalar_angle_r	mtp_angle_r	hip_flexion_l	hip_adduction_l	hip_rotation_l	knee_angle_l	knee_angle_l_beta	ankle_angle_l	subtalar_angle_l	mtp_angle_l	lumbar_extension	lumbar_bending	lumbar_rotation	arm_flex_r	arm_add_r	arm_rot_r	elbow_flex_r	pro_sup_r	arm_flex_l	arm_add_l	arm_rot_l	elbow_flex_l	pro_sup_l
      0.71000000	      1.97527369	      5.04641507	     -3.07445584	      0.75035920	      0.87762964	     -0.25628605	     -6.47710932	    -10.18146580	     -2.48129216	     53.52743295	      0.93422995	     -6.00423579	     -8.64777371	     -6.95263978	     21.74518804	      2.15521167	    -11.59984202	     20.46466080	      0.35717571	      2.26945885	      4.45831713	     -6.95263978	    -15.95055496	    -21.89166934	      1.51267215	      7.78856045	     -6.67256393	     15.90549045	     31.73290884	     96.82907322	      7.86014417	     -9.93837882	     -4.42589995	     20.80237361	     85.45757575
      0.72000000	      2.20566427	      5.53704223	     -2.99895267	      0.76124215	      0.88008541	     -0.25873032	     -4.68032622	    -10.91377722	     -2.12817755	     56.95991027	      0.99413798	     -6.07467006	     -9.76264458	     -6.95888337	     20.67896815	      2.86947638	    -11.83144125	     20.43578127	      0.35667167	      2.91191193	      4.84561163	     -6.95888337	    -16.68136906	    -22.51846690	      0.49943951	      7.67270591	     -6.41777581	     16.37373568	     31.92534463	     96.91486307	      8.46485207	    -10.26252909	     -4.40540011	     20.52018629	     85.43290394
      0.73000000	      2.26259223	      5.82651511	     -2.98611845	      0.77193035	      0.88247055	     -0.26103086	     -2.63861298	    -11.31376690	     -1.54469506	     60.16169173	      1.05001960	     -5.75220323	    -11.02476463	     -6.96497033	     19.72313932	      3.37292518	    -11.95125909	     20.24156088	      0.35328188	      3.44201376	      5.32289390	     -6.96497033	    -17.13101607	    -22.87817495	     -0.30623979	      7.51150904	     -6.28757943	     17.03349883	     32.11106040	     97.04303983	      9.05987308	    -10.51186065	     -4.34051300	     20.25740049	     85.42761160
      0.74000000	      2.09546202	      5.85356833	     -3.01221456	      0.78246274	      0.88464779	     -0.26322430	     -0.31321150	    -11.32044367	     -0.85243670	     63.09349195	      1.10118917	     -5.32753081	    -12.37895723	     -6.98688818	     19.01556478	      3.53161837	    -12.26535146	     20.08592791	      0.35056558	      4.06351519	      6.12492016	     -6.98688818	    -17.19411538	    -22.90442493	     -0.97034330	      7.48386341	     -6.44570003	     18.96605362	     32.04215132	     97.45411968	      9.60457728	    -10.74508749	     -3.81006011	     19.82482460	     85.51004275
      0.75000000	      2.26733701	      5.78003332	     -3.04174030	      0.79292895	      0.88744983	     -0.26542777	      1.51186157	    -11.17675971	     -0.19926095	     65.50817862	      1.14333340	     -4.59582750	    -13.11997746	     -6.99068681	     17.76837717	      3.74854961	    -12.09532247	     19.57093287	      0.34157722	      4.46793399	      6.35000432	     -6.99068681	    -17.70807654	    -22.76843501	     -1.75685617	      7.40798960	     -6.36410252	     19.29279442	     32.24738525	     97.54387026	     10.05208499	    -10.94708542	     -3.71619968	     19.77904617	     85.52731019
      0.76000000	      2.04615723	      5.70669939	     -3.10765857	      0.80349109	      0.88967214	     -0.26758590	      3.80389642	    -11.04122440	      0.39598769	     67.74143085	      1.18231101	     -3.47038638	    -13.75983989	     -6.99716339	     16.86485579	      3.95041895	    -11.96588776	     18.86516933	      0.32925932	      4.97854746	      6.58276549	     -6.99716339	    -17.58957421	    -22.60867453	     -2.29015664	      7.14261322	     -6.47001033	     20.07897007	     32.57850650	     97.75894146	     10.41757135	    -11.10955369	     -3.48848654	     19.77957670	     85.57889476
